<svg id="Calque_1" data-name="Calque 1" xmlns="http://www.w3.org/2000/svg" viewBox="0 0 19.33 49.11"><defs><style>.cls-1{fill:#fff;}</style></defs><title>mouse-scroll</title><path class="cls-1" d="M423.32,458.72a7.85,7.85,0,0,1-7.87,7.87H415a7.85,7.85,0,0,1-7.87-7.87v-8a7.85,7.85,0,0,1,7.87-7.86h.42a7.85,7.85,0,0,1,7.87,7.86Zm1.58-8a9.45,9.45,0,0,0-9.45-9.45H415a9.45,9.45,0,0,0-9.45,9.45v8a9.45,9.45,0,0,0,9.45,9.45h.42a9.45,9.45,0,0,0,9.45-9.45Z" transform="translate(-405.58 -430.16)"/><path class="cls-1" d="M415.23,449.2a.79.79,0,0,0-.79.8v2.32a.79.79,0,1,0,1.58,0V450a.79.79,0,0,0-.79-.8" transform="translate(-405.58 -430.16)"/><path class="cls-1" d="M414.75,479.09a.77.77,0,0,0,1,0l4-3.16a.8.8,0,0,0,.12-1.12.79.79,0,0,0-1.11-.12l-3.47,2.77-3.47-2.77a.79.79,0,1,0-1,1.24Z" transform="translate(-405.58 -430.16)"/><path class="cls-1" d="M418.71,434.74a.79.79,0,0,0,1-1.24l-4-3.17a.8.8,0,0,0-1,0l-4,3.17a.79.79,0,0,0,1,1.24l3.47-2.77Z" transform="translate(-405.58 -430.16)"/></svg>